# AST/ASF file generated using VICON BodyLanguage
# -----------------------------------------------
:version 1.10
:name VICON
:units
  mass 1.0
  length 0.45
  angle deg
:documentation
   .ast/.asf automatically generated from VICON data using
   VICON BodyBuilder and BodyLanguage model FoxedUp or BRILLIANT.MOD
:root
   order TX TY TZ RX RY RZ
   axis XYZ
   position 0 0 0  
   orientation 0 0 0 
:bonedata
  begin
     id 1 
     name lhipjoint
     direction 0.611804 -0.747784 0.257906 
     length 2.29243 
     axis 0 0 0  XYZ
  end
  begin
     id 2 
     name lfemur
     direction 0.34202 -0.939693 0  
     length 7.31159  
     axis 0 0 20  XYZ
    dof rx ry rz
    limits (-160.0 20.0)
           (-70.0 70.0)
           (-60.0 70.0)
  end
  begin
     id 3 
     name ltibia
     direction 0.34202 -0.939693 0   
     length 7.33391   
     axis 0 0 20   XYZ
    dof rx
    limits (-10.0 170.0)
  end
  begin
     id 4 
     name lfoot
     direction 0.122263 -0.335914 0.933924   
     length 1.76083   
     axis -90 7.62852e-016 20   XYZ
    dof rx rz
    limits (-45.0 90.0)
           (-70.0 20.0)
  end
  begin
     id 5 
     name ltoes
     direction 1.53533e-011 -4.2177e-011 1   
     length 0.879206   
     axis -90 7.62852e-016 20   XYZ
    dof rx
    limits (-90.0 20.0)
  end
  begin
     id 6 
     name rhipjoint
     direction -0.646469 -0.721248 0.248754   
     length 2.37677  
     axis 0 0 0  XYZ 
  end
  begin
     id 7 
     name rfemur
     direction -0.34202 -0.939693 0   
     length 7.18623   
     axis 0 0 -20   XYZ
    dof rx ry rz
    limits (-160.0 20.0)
           (-70.0 70.0)
           (-70.0 60.0)
  end
  begin
     id 8 
     name rtibia
     direction -0.34202 -0.939693 0   
     length 7.36567   
     axis 0 0 -20   XYZ
    dof rx
    limits (-10.0 170.0)
 end
 begin
     id 9 
     name rfoot
     direction -0.126681 -0.348054 0.928876   
     length 1.71902  
     axis -90 -7.62852e-016 -20   XYZ
    dof rx rz
    limits (-45.0 90.0)
           (-20.0 70.0)
  end
  begin
     id 10 
     name rtoes
     direction -1.53551e-011 -4.21898e-011 1   
     length 0.857792   
     axis -90 -7.62852e-016 -20   XYZ
    dof rx
    limits (-90.0 20.0)
  end
  begin
     id 11 
     name lowerback
     direction 0.0106509 0.999778 0.0181844   
     length 2.07668   
     axis 0 0 0   XYZ
    dof rx ry rz
    limits (-20.0 45.0)
           (-30.0 30.0)
           (-30.0 30.0)
  end
  begin
     id 12 
     name upperback
     direction -0.00456018 0.999989 -0.000590935   
     length 2.08011   
     axis 0 0 0   XYZ
    dof rx ry rz
    limits (-20.0 45.0)
           (-30.0 30.0)
           (-30.0 30.0)
  end
  begin
     id 13 
     name thorax
     direction -0.00910382 0.999916 -0.00923765   
     length 2.07397   
     axis 0 0 0   XYZ
    dof rx ry rz
    limits (-20.0 45.0)
           (-30.0 30.0)
           (-30.0 30.0)
  end
  begin
     id 14 
     name lowerneck
     direction 0.00171967 0.99778 0.0665733   
     length 1.67556   
     axis 0 0 0   XYZ
    dof rx ry rz
    limits (-20.0 45.0)
           (-30.0 30.0)
           (-30.0 30.0)
  end
  begin
     id 15 
     name upperneck
     direction -0.0143166 0.991302 -0.130828   
     length 1.68462   
     axis 0 0 0   XYZ
    dof rx ry rz
    limits (-20.0 45.0)
           (-30.0 30.0)
           (-30.0 30.0)
  end
  begin
     id 16
     name head
     direction -0.00606378 0.998665 -0.0512995  
     length 1.69269  
     axis 0 0 0   XYZ
    dof rx ry rz
    limits (-20.0 45.0)
           (-30.0 30.0)
           (-30.0 30.0)
  end
  begin
     id 17 
     name lclavicle
     direction 0.9638 0.179341 0.197297  
     length 4.12888  
     axis 0 0 0   XYZ
    dof ry rz
    limits (-20.0 10.0)
           (0.0 20.0)
  end
  begin
     id 18 
     name lhumerus
     direction 1 -4.48972e-011 -2.47351e-027   
     length 5.01834   
     axis -180 -30 -90   XYZ
    dof rx ry rz
    limits (-60.0 90.0)
           (-90.0 90.0)
           (-90.0 90.0)
  end
  begin
     id 19
     name lradius
     direction 1 -4.48965e-011 1.51591e-026   
     length 3.4869   
     axis -180 -30 -90   XYZ
    dof rx
    limits (-10.0 170.0)
  end
  begin
     id 20
     name lwrist
     direction 1 -4.48957e-011 2.70032e-026   
     length 1.74345   
     axis -1.81515e-014 90 90   XYZ
    dof ry
    limits (-180.0 0.0)
 end
  begin
     id 21 
     name lhand
     direction 1 -4.48951e-011 5.40064e-026   
     length 0.76799   
     axis -3.44607e-014 90 90   XYZ
    dof rx rz
    limits (-90.0 90.0)
           (-45.0 45.0)
  end
  begin
     id 22 
     name lfingers
     direction 1 -4.48971e-011 1.08013e-025   
     length 0.619174   
     axis -6.89214e-014 90 90   XYZ
    dof rx
    limits (0.0 90.0)
  end
  begin
     id 23
     name lthumb
     direction 0.707107 -6.34931e-011 0.707107   
     length 0.889013   
     axis -90 45 2.85299e-015   XYZ
    dof rx rz
    limits (-45.0 45.0)
           (-45.0 45.0)
  end
  begin
     id 24 
     name rclavicle
     direction -0.961409 0.252588 0.109054   
     length 4.04305  
     axis 0 0 0   XYZ 
    dof ry rz
    limits (-10.0 20.0)
           (-20.0 0.0)
  end
  begin
     id 25 
     name rhumerus
     direction -1 -4.4897e-011 1.33872e-017  
     length 4.70164   
     axis -180 30 90   XYZ
    dof rx ry rz
    limits (-90.0 60.0)
           (-90.0 90.0)
           (-90.0 90.0)
  end
  begin
     id 26 
     name rradius
     direction -1 -4.48954e-011 1.83844e-026   
     length 3.49911   
     axis -180 30 90   XYZ
    dof rx
    limits (-10.0 170.0)
  end
  begin
     id 27 
     name rwrist
     direction -1 -4.49008e-011 2.70032e-026   
     length 1.74955   
     axis -1.81515e-014 -90 -90   XYZ
    dof ry
    limits (-180.0 0.0)
  end
  begin
     id 28
     name rhand
     direction -1 -4.48916e-011 5.40064e-026   
     length 0.739335   
     axis -3.44607e-014 -90 -90   XYZ
    dof rx rz
    limits (-90.0 90.0)
           (-45.0 45.0)
  end
  begin
     id 29
     name rfingers
     direction -1 -4.48987e-011 1.08013e-025   
     length 0.596071   
     axis -6.89214e-014 -90 -90   XYZ
    dof rx
    limits (0.0 90.0)
  end
  begin
     id 30
     name rthumb
     direction -0.707107 -6.34935e-011 0.707107   
     length 0.855843   
     axis -90 -45 -2.85299e-015   XYZ
    dof rx rz
    limits (-45.0 45.0)
           (-45.0 45.0)
  end
:hierarchy
  begin
    root lhipjoint rhipjoint lowerback
    lhipjoint lfemur
    lfemur ltibia
    ltibia lfoot
    lfoot ltoes
    rhipjoint rfemur
    rfemur rtibia
    rtibia rfoot
    rfoot rtoes
    lowerback upperback
    upperback thorax
    thorax lowerneck lclavicle rclavicle
    lowerneck upperneck
    upperneck head
    lclavicle lhumerus
    lhumerus lradius
    lradius lwrist
    lwrist lhand lthumb
    lhand lfingers
    rclavicle rhumerus
    rhumerus rradius
    rradius rwrist
    rwrist rhand rthumb
    rhand rfingers
  end

#!OML:ASF I:\salsa\salsa 7_09\Patient 1\Session 1\dancermale.ASF
:FULLY-SPECIFIED
:DEGREES
630
root -1.36162 17.5259 0.177239 241.501 87.3893 233.364
lowerback -6.40575 -0.226904 3.21457
upperback -1.71723 -0.481103 0.504082
thorax 1.79702 -0.215257 -1.32257
lowerneck -9.13958 0.407251 4.18925
upperneck 8.55586 0.444934 -4.30862
head 4.06697 0.125758 -1.97508
rclavicle -5.10939e-015 1.13804e-014
rhumerus 28.6163 10.7795 -41.3401
rradius 104.846
rwrist 24.1131
rhand -19.5289 -13.2158
rfingers 7.12502
rthumb 6.79465 -43.0868
lclavicle -5.10939e-015 1.13804e-014
lhumerus 78.5454 -8.63712 19.535
lradius 83.3546
lwrist 8.69656
lhand -7.55359 44.1319
lfingers 7.12502
lthumb 18.3383 73.2874
rfemur -46.0404 -13.5688 22.1627
rtibia 57.7223
rfoot 10.1546 -4.5201
rtoes 16.6026
lfemur -7.40311 6.50544 -23.5891
ltibia 15.0436
lfoot -19.1847 9.81983
ltoes 2.83719
631
root -1.30508 17.5374 0.189719 239.302 87.0728 230.879
lowerback -7.26352 -0.387769 2.99596
upperback -1.35329 -0.732253 0.830792
thorax 2.64626 -0.326683 -0.893546
lowerneck -9.64462 0.536541 4.15341
upperneck 8.30069 0.630331 -4.63619
head 4.08171 0.191683 -2.0583
rclavicle -1.03896e-014 -3.47873e-015
rhumerus 27.8425 10.8253 -44.1564
rradius 106.771
rwrist 25.7813
rhand -19.5704 -13.2146
rfingers 7.12502
rthumb 6.75455 -43.0869
lclavicle -1.03896e-014 -3.47873e-015
lhumerus 77.8472 -8.53955 20.3304
lradius 85.024
lwrist 7.76951
lhand -7.59911 44.175
lfingers 7.12502
lthumb 18.2945 73.3347
rfemur -44.5603 -13.0745 22.9423
rtibia 55.7277
rfoot 9.87426 -5.36675
rtoes 17.9309
lfemur -7.12212 6.48976 -23.3028
ltibia 14.3473
lfoot -19.0544 9.71205
ltoes 2.84828
632
root -1.24252 17.5419 0.206122 235.532 86.6683 226.856
lowerback -7.10321 -0.401368 3.13958
upperback -1.85538 -0.73061 0.822627
thorax 2.03625 -0.333524 -0.977943
lowerneck -9.32111 0.469156 4.24721
upperneck 8.56529 0.55097 -4.65658
head 4.10549 0.159124 -2.08566
rclavicle 3.08427e-015 2.68359e-015
rhumerus 25.5272 11.5393 -47.1721
rradius 108.897
rwrist 27.5138
rhand -19.8566 -13.6336
rfingers 7.12502
rthumb 6.47826 -43.5145
lclavicle 3.08427e-015 2.68359e-015
lhumerus 77.3684 -9.90701 20.8995
lradius 86.6189
lwrist 6.64234
lhand -7.72666 44.4378
lfingers 7.12502
lthumb 18.1718 73.609
rfemur -42.7223 -12.6612 23.6129
rtibia 53.371
rfoot 8.13555 -6.68732
rtoes 17.9775
lfemur -6.89583 6.26472 -23.0207
ltibia 13.8415
lfoot -18.9597 9.74318
ltoes 2.37431
633
root -1.17684 17.5405 0.22345 230.914 86.2136 222.017
lowerback -7.45054 -0.534233 2.88424
upperback -1.91738 -0.901645 1.08597
thorax 2.16712 -0.415881 -0.581841
lowerneck -9.27188 0.504411 4.00935
upperneck 8.39786 0.630762 -4.68635
head 4.04944 0.190044 -2.05011
rclavicle -3.19919e-015 3.37934e-015
rhumerus 24.1814 12.3042 -49.6218
rradius 110.827
rwrist 29.788
rhand -19.9058 -14.6733
rfingers 7.12502
rthumb 6.43076 -44.5557
lclavicle -3.19919e-015 3.37934e-015
lhumerus 76.966 -10.6098 21.6494
lradius 87.8991
lwrist 5.64685
lhand -8.16859 44.3367
lfingers 7.12502
lthumb 17.7466 73.5469
rfemur -40.6292 -12.2531 24.0418
rtibia 50.795
rfoot 5.35845 -7.86077
rtoes 17.0745
lfemur -6.73367 5.92424 -22.7936
ltibia 13.5197
lfoot -18.8846 9.83415
ltoes 1.7786
634
root -1.10568 17.5328 0.239037 226.087 85.7999 217.13
lowerback -7.58473 -0.57385 2.66609
upperback -2.04353 -0.937149 1.18468
thorax 2.11574 -0.433664 -0.361773
lowerneck -9.08551 0.426702 4.00188
upperneck 8.33297 0.538851 -4.75026
head 3.99481 0.14374 -2.07354
rclavicle 6.60027e-015 -1.36167e-014
rhumerus 22.4695 13.0683 -52.1076
rradius 112.597
rwrist 31.9976
rhand -20.1334 -15.6827
rfingers 7.12502
rthumb 6.21105 -45.5716
lclavicle 6.60027e-015 -1.36167e-014
lhumerus 76.9179 -11.5849 22.2321
lradius 88.8995
lwrist 4.83411
lhand -8.69646 43.7712
lfingers 7.12502
lthumb 17.2386 73.0266
rfemur -38.2336 -11.6742 24.0915
rtibia 48.0937
rfoot 2.40315 -8.79717
rtoes 16.445
lfemur -6.46541 5.63042 -22.6751
ltibia 13.391
lfoot -18.9049 10.0494
ltoes 0.592403
635
root -1.02986 17.5199 0.25133 221.575 85.4138 212.714
lowerback -7.16515 -0.511889 2.89219
upperback -2.47927 -0.83075 0.962042
thorax 1.42882 -0.388974 -0.70079
lowerneck -8.8061 0.222421 3.94125
upperneck 8.80791 0.275002 -4.51567
head 4.08084 0.028427 -2.0092
rclavicle -3.85145e-015 5.56597e-015
rhumerus 20.0958 13.9072 -54.9585
rradius 114.093
rwrist 33.5975
rhand -21.194 -15.9536
rfingers 7.12502
rthumb 5.18706 -45.8701
lclavicle -3.85145e-015 5.56597e-015
lhumerus 76.9832 -13.1657 22.5791
lradius 89.7484
lwrist 3.98045
lhand -8.87448 43.4954
lfingers 7.12502
lthumb 17.0673 72.7656
rfemur -35.599 -10.8395 23.8466
rtibia 45.2813
rfoot -0.592462 -9.60814
rtoes 15.888
lfemur -6.15349 5.31932 -22.6363
ltibia 13.5509
lfoot -19.1095 10.3535
ltoes -0.60622
